<svg width="73" height="73" viewBox="0 0 73 73" fill="none" xmlns="http://www.w3.org/2000/svg">
<path d="M36.4983 4.56171C29.8454 4.5696 23.4673 7.21593 18.763 11.9202C14.0588 16.6245 11.4124 23.0026 11.4045 29.6555C11.4045 51.1268 34.217 67.3451 35.1884 68.0246C35.5725 68.2928 36.0297 68.4367 36.4983 68.4367C36.9668 68.4367 37.4241 68.2928 37.8082 68.0246C38.7795 67.3451 61.592 51.1268 61.592 29.6555C61.5841 23.0026 58.9378 16.6245 54.2335 11.9202C49.5293 7.21593 43.1511 4.5696 36.4983 4.56171ZM36.5 20.5313C38.3047 20.5313 40.0689 21.0665 41.5695 22.0691C43.0701 23.0718 44.2397 24.4969 44.9304 26.1643C45.621 27.8317 45.8017 29.6664 45.4496 31.4365C45.0975 33.2066 44.2285 34.8325 42.9523 36.1086C41.6762 37.3848 40.0502 38.2539 38.2802 38.6059C36.5101 38.958 34.6754 38.7773 33.008 38.0867C31.3406 37.396 29.9155 36.2265 28.9128 34.7259C27.9101 33.2253 27.375 31.461 27.375 29.6563C27.3749 28.458 27.6109 27.2714 28.0695 26.1643C28.5281 25.0571 29.2002 24.0512 30.0475 23.2039C30.8949 22.3565 31.9008 21.6844 33.0079 21.2258C34.115 20.7672 35.3016 20.5312 36.5 20.5313Z" fill="white"/>
</svg>
