<svg width="322" height="322" fill="none" xmlns="http://www.w3.org/2000/svg"><path fill-rule="evenodd" clip-rule="evenodd" d="M321.999 161c0 89.186-71.813 160.999-160.999 160.999C71.813 321.999 0 250.186 0 161 0 71.813 72.392 0 161 0c89.186 0 160.999 72.392 160.999 161Z" fill="#EEEEF6"/><path d="M164.478 294.2c26.548 0 48.068-21.52 48.068-48.068 0-26.547-21.52-48.068-48.068-48.068-26.547 0-48.068 21.521-48.068 48.068 0 26.548 21.521 48.068 48.068 48.068ZM54.44 40.54c5.792 1.158 11.583 2.316 17.954 2.316 29.536 0 55.597-16.795 68.338-41.118C108.3 5.79 78.185 19.69 54.441 40.54ZM1.16 176.057c3.475 35.327 17.953 67.18 39.96 92.083 2.317-6.95 3.475-14.479 3.475-22.587 0-30.694-17.953-56.755-43.435-69.496Z" fill="#3BE893"/><path fill-rule="evenodd" clip-rule="evenodd" d="M175.478.58c-19.691 20.849-32.432 49.227-32.432 80.5 0 64.863 52.123 116.985 116.986 116.985 22.007 0 42.856-6.37 60.809-17.374.579-6.37 1.158-13.32 1.158-19.691 0-83.974-64.284-152.891-146.521-160.42Z" fill="#3BE893"/></svg>