<svg width="37" height="37" fill="none" xmlns="http://www.w3.org/2000/svg"><g clip-path="url(#a)" fill-rule="evenodd" clip-rule="evenodd" fill="#fff"><path d="M0 31.223h36.633V4.58H0v26.643Zm4.995-4.996h26.643V9.576H4.995v16.651Z"/><path d="M4.995 13.74H9.16V9.577H4.995v4.165Zm22.487 12.487h4.156v-4.155h-4.156v4.155ZM18.316 20.4a2.5 2.5 0 0 1-2.498-2.498 2.5 2.5 0 0 1 2.498-2.498 2.5 2.5 0 0 1 2.498 2.497 2.5 2.5 0 0 1-2.498 2.498Z"/><path d="M18.316 13.67a4.232 4.232 0 1 0 0 8.463 4.232 4.232 0 0 0 0-8.464Z"/></g><defs><clipPath id="a"><path fill="#fff" d="M0 0h36.643v36.643H0z"/></clipPath></defs></svg>