<svg width="37" height="37" fill="none" xmlns="http://www.w3.org/2000/svg"><g clip-path="url(#a)"><path fill-rule="evenodd" clip-rule="evenodd" d="m18.321 0-5.83 11.657L0 12.492l9.16 9.16-3.33 13.325 12.491-6.662 12.494 6.662-3.333-13.324 9.16-9.161-12.491-.835L18.321 0Zm-4.798 22.742.618-2.469-1.8-1.8-2.153-2.152 2.604-.175 2.57-.173 1.152-2.304 1.807-3.614 1.808 3.614 1.152 2.304 2.57.173 2.605.175-2.154 2.152-1.8 1.8.618 2.469.874 3.503-3.556-1.9-2.117-1.128-2.117 1.129-3.556 1.899.875-3.503Z" fill="#fff"/></g><defs><clipPath id="a"><path fill="#fff" d="M0 0h36.643v36.643H0z"/></clipPath></defs></svg>