<svg width="37" height="37" fill="none" xmlns="http://www.w3.org/2000/svg"><g clip-path="url(#a)"><path fill-rule="evenodd" clip-rule="evenodd" d="M12.745 11.152A3.19 3.19 0 0 1 9.56 7.966a3.19 3.19 0 0 1 3.186-3.187 3.19 3.19 0 0 1 3.187 3.187 3.19 3.19 0 0 1-3.187 3.186Zm0-11.152a7.966 7.966 0 1 0 0 15.931 7.966 7.966 0 0 0 0-15.931ZM0 28.677v7.966h4.779v-7.966a4.785 4.785 0 0 1 4.78-4.78h6.372v-4.78H9.558C4.301 19.118 0 23.42 0 28.678Z" fill="#fff"/><mask id="b" style="mask-type:alpha" maskUnits="userSpaceOnUse" x="0" y="0" width="36" height="37"><path d="M0 36.643h35.05V0H0v36.643Z" fill="#fff"/></mask><g mask="url(#b)"><path fill-rule="evenodd" clip-rule="evenodd" d="M23.896 27.084h6.373v-3.187h-6.373v3.187Zm-4.78-7.966v17.525l4.78-4.78H35.05V19.118H19.117Z" fill="#fff"/></g></g><defs><clipPath id="a"><path fill="#fff" d="M0 0h36.643v36.643H0z"/></clipPath></defs></svg>